<?xml version="1.0" encoding="utf-8"?>
<!-- Generator: Adobe Illustrator 26.5.0, SVG Export Plug-In . SVG Version: 6.00 Build 0)  -->
<svg version="1.1" id="Layer_1" xmlns="http://www.w3.org/2000/svg" xmlns:xlink="http://www.w3.org/1999/xlink" x="0px" y="0px"
	 viewBox="0 0 392 250" style="enable-background:new 0 0 392 250;" xml:space="preserve">
<style type="text/css">
	.st0{fill-rule:evenodd;clip-rule:evenodd;fill:#FFFFFF;}
	.st1{fill:#FFFFFF;}
</style>
<g>
	<g>
		<path class="st0" d="M35.7,163.2v8.3c-0.5-0.3-0.8-0.8-1.3-1.2s-1-0.7-1.5-1s-1.2-0.7-1.7-1c-0.5-0.3-1.2-0.5-1.7-0.8
			c-0.7-0.2-1.3-0.5-1.8-0.7c-0.7-0.2-1.3-0.3-2-0.5c-0.7-0.2-1.3-0.2-2.2-0.3c-0.7,0-1.3,0-2.2,0s-1.3,0-2,0
			c-0.7,0.2-1.3,0.2-1.8,0.3c-0.5,0.2-1,0.3-1.7,0.5c-0.5,0.2-1,0.5-1.3,0.8c-0.5,0.3-0.8,0.7-1.2,1s-0.7,0.7-0.8,1
			c-0.2,0.3-0.5,0.8-0.5,1.2c-0.2,0.3-0.2,0.8-0.2,1.3c0,0.5,0,0.8,0.2,1.3c0,0.3,0.3,0.7,0.5,1c0.2,0.3,0.5,0.7,0.8,0.8
			c0.3,0.3,0.7,0.5,1.2,0.7c0.5,0.2,0.8,0.3,1.3,0.5s1,0.3,1.5,0.5c0.5,0.2,1,0.3,1.7,0.5c0.7,0.2,1.2,0.3,1.8,0.5H21c0,0,0,0,0,0.2
			h0.8c0,0,0,0,0.2,0h0.3h0.2h0.2c0,0,0.2,0,0.3,0.2c0.2,0,0.3,0,0.5,0c0.2,0,0.3,0,0.5,0c0.2,0,0.3,0,0.5,0.2
			c0.8,0.2,1.7,0.3,2.3,0.7c0.8,0.3,1.5,0.5,2.2,0.8c0.7,0.3,1.3,0.7,2.2,1s1.3,0.8,2,1.2c0.7,0.5,1.3,0.8,1.8,1.5
			c0.5,0.5,0.8,1.2,1.2,1.8c0.3,0.7,0.7,1.5,0.8,2.3s0.3,1.8,0.3,2.8c0,0.8-0.2,1.8-0.3,2.7c-0.2,0.8-0.5,1.7-0.8,2.3
			c-0.5,0.8-1,1.5-1.7,2.2c-0.5,0.7-1.3,1.3-2.2,2c-0.8,0.5-1.7,1.2-2.7,1.5c-0.8,0.5-1.8,0.8-3,1.2c-1,0.3-2.2,0.5-3.3,0.7
			c-1.2,0.2-2.3,0.2-3.7,0.2h-1.3c-0.5,0-0.8,0-1.3-0.2h-0.8c-0.3,0-0.5-0.2-0.8-0.2s-0.5,0-0.8,0c-0.2,0-0.5,0-0.7-0.2
			c-0.2,0-0.3,0-0.5,0c-0.2,0-0.5,0-0.5-0.2c-0.2,0-0.3,0-0.5,0c-0.2,0-0.3,0-0.5-0.2c-0.2,0-0.5,0-0.5,0c-0.2-0.2-0.3-0.2-0.5-0.3
			c-0.2,0-0.3,0-0.5-0.2c0,0-0.2,0-0.3-0.2c0,0-0.2,0-0.3,0c0,0-0.2-0.2-0.3-0.2c0,0-0.2-0.2-0.3-0.2c-0.2,0-0.5-0.2-0.7-0.3
			c-0.3-0.2-0.5-0.2-0.7-0.3c-0.2,0-0.2-0.2-0.3-0.2c0,0-0.2-0.2-0.3-0.2s-0.2-0.2-0.3-0.2s-0.2-0.2-0.3-0.2c-0.2,0-0.3-0.2-0.5-0.2
			c0,0-0.2-0.2-0.3-0.3c-0.2,0-0.3,0-0.5-0.2c0-0.2-0.2-0.2-0.3-0.3v-7.8c0.5,0.5,1,0.8,1.5,1.3s1,0.8,1.7,1.2c0.5,0.3,1,0.7,1.7,1
			c0.5,0.3,1.2,0.7,1.7,0.8c0.7,0.3,1.3,0.5,1.8,0.8c0.7,0.2,1.3,0.5,2,0.5c0.8,0.2,1.5,0.3,2.2,0.3c0.7,0,1.5,0,2.3,0
			c0.7,0,1.3,0,2.2,0c0.7,0,1.3-0.2,1.8-0.3c0.7-0.2,1.2-0.3,1.8-0.5c0.5-0.2,1-0.5,1.3-0.8c0.5-0.3,0.8-0.7,1.2-0.8
			c0.3-0.3,0.7-0.7,0.8-1.2c0.2-0.3,0.3-0.8,0.5-1.3c0-0.5,0.2-0.8,0.2-1.3c0-0.5,0-1-0.2-1.5s-0.3-0.8-0.5-1.2
			c-0.3-0.3-0.5-0.7-1-1c-0.3-0.3-0.8-0.5-1.3-0.8c-0.5-0.2-1.2-0.5-1.7-0.7c-0.5-0.3-1.2-0.5-1.8-0.7c-0.5-0.2-1.2-0.5-1.8-0.5
			c-0.7,0-1.3-0.3-2.2-0.5h-0.5l0,0l0,0h-0.5h-0.2c0,0,0,0-0.2,0h-0.2h-0.2c-0.2,0-0.2,0-0.2,0h-0.2c-0.2,0-0.2,0-0.3,0
			c0,0-0.2,0-0.3-0.2c-0.8-0.2-1.7-0.5-2.5-0.7s-1.5-0.5-2.3-0.8c-0.2,0-0.5-0.2-0.7-0.3c-0.3,0-0.5-0.2-0.7-0.3
			c-0.5-0.2-0.8-0.5-1.3-0.7s-1-0.5-1.3-0.7c-0.7-0.5-1.3-0.8-1.8-1.3c-0.5-0.5-0.8-1.2-1.3-1.8c-0.3-0.7-0.7-1.5-0.8-2.3
			c-0.2-0.8-0.3-1.7-0.3-2.7c0-0.8,0-1.8,0.3-2.7c0.2-0.8,0.5-1.7,1-2.5c0.3-0.8,0.8-1.5,1.5-2.3c0.7-0.7,1.3-1.3,2.2-1.8
			c0.8-0.7,1.7-1.2,2.7-1.7s2-0.8,3-1.2c1-0.3,2.2-0.5,3.3-0.7s2.5-0.3,3.7-0.3h0.7c0.2,0,0.5,0,0.7,0s0.5,0,0.7,0h0.7
			c0.2,0,0.5,0,0.7,0.2h0.7c0.2,0,0.5,0,0.7,0s0.5,0,0.5,0.2c0.2,0,0.5,0,0.7,0.2c0.2,0,0.5,0,0.7,0s0.5,0.2,0.5,0.2
			c0.2,0,0.5,0,0.7,0.2c0.2,0.2,0.5,0,0.7,0.2c0.2,0,0.3,0.2,0.5,0.3c0.2,0,0.5,0,0.7,0.2c0.2,0,0.3,0.2,0.5,0.2c0,0,0.2,0,0.3,0.2
			c0.2,0,0.2,0,0.3,0.2c0,0,0.2,0,0.3,0.2c0.2,0,0.2,0,0.3,0c0.2,0.2,0.5,0.2,0.7,0.3c0.2,0,0.5,0.2,0.7,0.3c0,0,0.2,0,0.3,0.2
			c0,0,0.2,0.2,0.3,0.2c0.2,0,0.2,0.2,0.3,0.2c0,0,0.2,0.2,0.3,0.2c0,0,0.2,0,0.3,0.2c0.2,0,0.2,0.2,0.3,0.2
			C35.5,163.2,35.7,163.2,35.7,163.2C35.5,163.2,35.5,163.2,35.7,163.2L35.7,163.2L35.7,163.2L35.7,163.2z"/>
		<path class="st1" d="M43.6,204v-36.3H51v0.7c0,0,0,0,0,0.2v0.5l0,0v0.5l0,0v0.5c0,0.2,0,0.3,0,0.5c0,0,0,0.2,0,0.3v2
			c0,0.7,0.5-0.5,1-1c0.3-0.5,0.8-0.8,1.2-1.2c0.5-0.5,0.8-0.8,1.3-1s0.8-0.5,1.3-0.8s0.8-0.5,1.5-0.7c0.5-0.2,1-0.3,1.7-0.5
			s1.2-0.2,1.8-0.3c0.7,0,1.3-0.2,2-0.2c1,0,2.2,0,3,0.3c1,0.2,1.8,0.5,2.8,0.7c0.8,0.3,1.7,0.8,2.3,1.3c0.8,0.5,1.5,1,2,1.7
			c0.7,0.7,1.2,1.3,1.7,2.2c0.5,0.8,0.8,1.7,1.2,2.5s0.5,1.8,0.7,3c0.2,1,0.3,2.2,0.3,3.3c0,1.3-0.2,2.3-0.3,3.5
			c-0.2,1-0.3,2.2-0.7,3c-0.3,1-0.8,1.8-1.2,2.8c-0.5,0.8-1,1.5-1.7,2.3c-0.7,0.7-1.3,1.3-2.2,1.8c-0.7,0.5-1.5,1-2.5,1.3
			c-0.8,0.3-1.8,0.5-2.8,0.7s-2,0.3-3.2,0.3c-0.7,0-1.3,0-1.8,0c-0.5,0-1.2-0.2-1.7-0.3c-0.5-0.2-1-0.3-1.5-0.3
			c-0.5-0.2-0.8-0.3-1.3-0.5c-0.5-0.2-0.8-0.5-1.3-0.8s-0.8-0.7-1.2-1c-0.5-0.5-0.8-0.8-1.2-1.3c-2-2.3-1,0.5-0.8,3.3v7.2L43.6,204
			L43.6,204z M48.6,182.1c0.3,0.2,2.2,0.3,2.7,0.5c2.7,0.5,4.7,1.3,6.5,3.2c2.2,2,3,4.8,3.5,7.8c0,0.5,0,1,0.3,1.2
			c0.2-0.2,0.8-3.5,1.3-5c2.8-7.8,10.8-7,11.5-7.5c-0.2-0.5-0.2-0.2-1.2-0.3c-0.5,0-0.8-0.2-1.3-0.3c-0.8-0.2-1.7-0.3-2.5-0.7
			c-7.8-2.8-7-10.8-7.8-11.5c-0.3,0.2-0.5,1.8-0.5,2.7c-1.5,6.8-5.3,9-11.8,9.8C48.6,181.7,48.6,181.6,48.6,182.1L48.6,182.1
			L48.6,182.1z"/>
		<path class="st0" d="M110,197.1h-6.7v-1.5c0,0,0-0.2,0.2-0.3v-0.5v-0.2v-0.5l0,0v-0.7v-0.2v-0.7c-0.3,0.5-0.7,0.8-1.2,1.2
			c-0.3,0.5-0.7,0.8-1.2,1.2c-0.5,0.3-0.8,0.7-1.3,0.8c-0.5,0.3-0.8,0.5-1.3,0.8c-0.5,0.2-1,0.3-1.5,0.5c-0.5,0.2-1,0.3-1.7,0.5
			c-0.5,0-1.2,0.2-1.8,0.3c-0.5,0-1.2,0-1.8,0s-1.3,0-2-0.2c-0.7,0-1.3-0.2-2-0.3c-0.5-0.2-1.2-0.3-1.8-0.7c-0.5-0.2-1-0.5-1.7-0.8
			c-0.5-0.3-0.8-0.8-1.3-1.2c-0.3-0.3-0.7-0.8-0.8-1.3c-0.3-0.5-0.5-1-0.7-1.5c0-0.5-0.2-1-0.2-1.7s0-1.3,0.2-2
			c0.2-0.5,0.3-1.2,0.5-1.7c0.3-0.5,0.7-1,1-1.3c0.5-0.5,0.8-0.8,1.5-1c0.5-0.3,1.2-0.5,1.8-0.8c0.5-0.2,1.2-0.5,1.8-0.7
			s1.3-0.5,1.8-0.5c0.7-0.2,1.3-0.3,2-0.5h0.5l0,0h0.2H93l0,0l0,0c0,0,0,0,0.2,0h0.3c0,0,0,0,0.2,0l0,0h0.5h0.2h0.2
			c0.5-0.2,1-0.3,1.5-0.3c0.5-0.2,1-0.2,1.5-0.5c0.5,0,1-0.2,1.3-0.3c0.5-0.2,0.8-0.3,1.3-0.5c0.5-0.2,0.8-0.3,1-0.5
			c0.3-0.2,0.5-0.5,0.7-0.7c0.2-0.3,0.5-0.5,0.5-0.8c0.2-0.3,0.2-0.7,0.2-1s0-0.5-0.2-0.8c0-0.2-0.2-0.5-0.3-0.8
			c-0.2-0.2-0.3-0.5-0.5-0.7c-0.3-0.2-0.5-0.5-0.8-0.5l-0.2-0.2c-0.2,0-0.2,0-0.3-0.2c-0.2,0-0.5-0.2-0.8-0.3s-0.5-0.2-0.8-0.3
			c-0.3,0-0.7-0.2-1-0.2s-0.7-0.2-1-0.2h-0.7c-0.7,0-1.2,0-1.8,0.2c-0.5,0-1.2,0.2-1.8,0.2c-0.5,0.2-1.2,0.3-1.7,0.5
			s-1.2,0.3-1.8,0.5c-0.5,0.3-1.2,0.5-1.7,0.8c-0.5,0.3-1,0.7-1.7,0.8c-0.5,0.3-1,0.7-1.5,1c-0.5,0.5-0.8,0.8-1.3,1.2v-6
			c0.5-0.3,1-0.7,1.5-0.8c0.5-0.3,1-0.7,1.5-0.8c0.5-0.3,1.2-0.5,1.7-0.8c0.5-0.3,1-0.5,1.7-0.7c0.3-0.2,0.8-0.3,1.2-0.5
			c0.5-0.2,0.8-0.2,1.2-0.3c0.2,0,0.3-0.2,0.5-0.2c0.3,0,0.5-0.2,0.7-0.2c0.2,0,0.3,0,0.5,0c0.2,0,0.3,0,0.5,0c0.5,0,1,0,1.3-0.2
			c0.5,0,1,0,1.5,0c0.5,0,1.2,0,1.8,0c0.5,0,1.2,0.2,1.7,0.2c0.5,0,1.2,0.2,1.7,0.3c0.5,0.2,1,0.2,1.5,0.5c0.5,0.2,1,0.3,1.3,0.5
			c0.5,0.2,0.8,0.5,1.2,0.7c0.3,0.2,0.7,0.5,1,0.7c0.3,0.3,0.7,0.5,0.8,0.8l0,0l0,0l0,0v0.2h0.2c0.2,0.2,0.3,0.5,0.5,0.7
			c0.2,0.3,0.3,0.5,0.5,0.8c0,0.2,0.2,0.3,0.2,0.5s0,0.2,0.2,0.3c0,0.2,0,0.3,0.2,0.5c0,0.2,0,0.2,0.2,0.5c0,0.2,0,0.5,0.2,0.8
			c0,0.3,0,0.7,0,1.2s0,0.8,0.2,1.3L110,197.1L110,197.1L110,197.1z M103.1,182.1l-0.2,0.2l-0.2,0.2c-0.2,0.2-0.3,0.2-0.5,0.3
			c-0.2,0.2-0.3,0.2-0.5,0.3c-0.3,0.2-0.5,0.3-0.8,0.3c-0.3,0.2-0.5,0.2-0.8,0.3s-0.5,0.2-0.8,0.3c-0.3,0-0.7,0.2-0.8,0.2
			c-0.2,0-0.3,0-0.5,0.2c-0.2,0-0.5,0.2-0.7,0.2H97c-0.2,0-0.2,0-0.3,0c-0.5,0.2-1,0.3-1.5,0.5c-0.5,0-0.8,0.2-1.3,0.3
			c-0.5,0.2-0.8,0.3-1.3,0.5c-0.5,0.2-0.8,0.3-1.3,0.5c-0.3,0.2-0.7,0.3-1,0.5s-0.5,0.5-0.7,0.7c-0.2,0.3-0.3,0.5-0.5,0.8
			c-0.2,0.3-0.2,0.8-0.2,1.2s0,0.5,0,0.8s0.2,0.5,0.3,0.8c0.2,0.2,0.3,0.5,0.5,0.7c0.2,0.2,0.3,0.3,0.7,0.5c0.3,0.2,0.5,0.3,0.8,0.5
			c0.3,0.2,0.7,0.3,1,0.3s0.7,0,1,0.2c0.3,0,0.8,0,1.2,0c0.8,0,1.5,0,2.2-0.2c0.7-0.2,1.2-0.3,1.8-0.5c0.5-0.2,1-0.5,1.3-0.8
			c0.5-0.3,0.8-0.7,1-1c0.3-0.5,0.5-0.8,0.8-1.3c0.2-0.5,0.5-0.8,0.5-1.3c0.2-0.5,0.3-0.8,0.5-1.3c0.2-0.5,0.2-1,0.3-1.5v-0.2v-0.2
			v-0.7v-0.2v-1v-0.2L103.1,182.1L103.1,182.1L103.1,182.1z"/>
		<path class="st0" d="M117.5,197.1v-29.3h7.5l-0.5,8c0.2-0.5,0.3-1,0.5-1.7c0.2-0.5,0.5-1,0.7-1.5c0.3-0.5,0.5-1,0.8-1.5
			s0.7-0.8,1-1.3c0.3-0.5,0.8-0.8,1.2-1.2c0.5-0.3,1-0.5,1.7-0.8c0.5-0.2,1.2-0.3,2-0.5c0.7-0.2,1.5-0.2,2.3-0.2c0.3,0,0.5,0,0.7,0
			c0.3,0,0.5,0,0.8,0c0,0,0.2,0,0.3,0h0.3h0.2l0,0h0.2h0.2c0,0,0.2,0,0.3,0c0.2,0,0.2,0,0.3,0.2c0,0,0,0,0.2,0l0,0
			c0,0,0.2,0,0.2,0.2h0.2c0,0,0.2,0,0.2,0.2c0,0,0.2,0,0.3,0.2c0.2,0,0.2,0.2,0.3,0.2c0.2,0,0.2,0.2,0.3,0.2l0,0l0,0l0,0h0.2l0,0
			h0.2l0,0l0,0l0,0l0,0l-0.3,6.5c-0.2-0.2-0.3-0.2-0.5-0.3c-0.2,0-0.3-0.2-0.5-0.3s-0.3-0.2-0.5-0.3c-0.2,0-0.3-0.2-0.5-0.2
			c-0.2,0-0.2,0-0.3-0.2c0,0,0,0-0.2,0h-0.2h-0.2c0,0-0.2,0-0.2-0.2h-0.2h-0.2h-0.2h-0.2l0,0h-0.2l0,0h-0.2l0,0h-0.8c0,0,0,0-0.2,0
			h-0.7c-0.8,0-1.5,0-2.2,0.2s-1.3,0.3-1.8,0.5c-0.5,0.2-1,0.5-1.5,0.8c-0.3,0.3-0.7,0.7-1,1.2c-0.3,0.5-0.5,0.8-0.8,1.3
			c-0.2,0.5-0.5,0.8-0.7,1.5c-0.2,0.5-0.3,0.8-0.5,1.5c-0.2,0.5-0.2,1-0.3,1.5c0,0.2,0,0.5-0.2,0.7v0.7c0,0.2,0,0.5,0,0.7v13.2
			L117.5,197.1L117.5,197.1z"/>
		<polygon class="st0" points="144.8,197.1 144.8,158.9 152.9,158.9 152.6,181.6 165.8,167.9 175.3,167.9 159.9,182.1 175.9,197.1 
			166.1,197.1 152.6,183.1 152.6,197.1 144.8,197.1 		"/>
		<polygon class="st0" points="180.6,197.1 180.6,158.9 188.6,158.9 188.6,197.1 180.6,197.1 		"/>
		<path class="st0" d="M226.1,184.2h-24.2c0,0.8,0,1.5,0.2,2.3c0.2,0.7,0.3,1.3,0.5,1.8c0.3,0.5,0.5,1,0.8,1.5
			c0.3,0.5,0.7,0.8,1.2,1.2c0.5,0.5,0.8,0.7,1.3,1c0.5,0.2,1.2,0.5,1.7,0.7c0.7,0.2,1.3,0.3,2.2,0.5c0.7,0,1.5,0.2,2.3,0.2
			c0.7,0,1.2,0,1.8,0c0.5,0,1,0,1.5-0.2c0.5,0,1-0.2,1.5-0.3c0.5,0,0.8-0.2,1.3-0.3c0.5-0.2,0.8-0.3,1.2-0.5
			c0.3-0.2,0.7-0.5,1.2-0.7c0.3-0.2,0.7-0.5,1.2-0.7c0.3-0.3,0.7-0.5,1.2-0.8v-0.2l0.2-0.2h0.2c0,0,0,0,0.2,0l0,0l0.2-0.2l0,0h0.2
			c0,0,0,0,0.2,0l0,0l0.2-0.2l0,0v-0.2c0,0,0,0,0.2-0.2v5.3c-0.5,0.5-0.8,0.8-1.3,1.2s-0.8,0.7-1.3,0.8c-0.5,0.3-1,0.5-1.5,0.8
			c-0.5,0.2-1,0.5-1.5,0.7c-0.5,0-1.2,0.2-1.7,0.3c-0.5,0-1.2,0.2-1.8,0.3c-0.5,0.2-1.2,0.2-1.8,0.2c-0.7,0-1.3,0-1.8,0
			c-1.3,0-2.7,0-3.8-0.2s-2.3-0.3-3.3-0.7s-2-0.8-2.8-1.3c-0.8-0.5-1.7-1-2.3-1.8c-0.7-0.7-1.3-1.3-1.8-2.2s-1-1.7-1.3-2.7
			c-0.3-1-0.7-2-0.8-3.2c-0.2-1.2-0.2-2.3-0.2-3.7c0-1.2,0-2.3,0.2-3.3c0.2-1,0.5-2,0.8-2.8c0.3-0.8,0.8-1.8,1.3-2.7
			s1.2-1.5,1.8-2.2s1.5-1.3,2.3-1.8c0.8-0.5,1.8-0.8,2.8-1.3c1-0.3,2-0.5,3.2-0.8c1.2-0.2,2.3-0.3,3.7-0.3s2.3,0,3.5,0.3
			c1,0.2,2,0.3,3,0.7s1.8,0.7,2.7,1.2c0.8,0.5,1.7,1,2.3,1.7c0.7,0.7,1.3,1.3,1.8,2c0.5,0.8,1,1.5,1.3,2.3c0.3,0.8,0.7,1.8,0.8,2.8
			c0.2,1,0.3,2,0.3,3.2v0.7l0,0v0.8l0,0v0.5l0,0v0.2L226.1,184.2L226.1,184.2L226.1,184.2L226.1,184.2z M220.6,179.6
			c0-0.5-0.2-1-0.3-1.5c-0.2-0.5-0.5-0.8-0.5-1.3c-0.2-0.5-0.5-0.8-0.8-1.3c-0.3-0.3-0.7-0.7-0.8-1c-0.3-0.3-0.8-0.7-1.3-0.8
			c-0.5-0.3-0.8-0.5-1.5-0.7c-0.5-0.2-1.2-0.3-1.8-0.5c-0.7,0-1.3-0.2-2.2-0.2s-1.5,0-2.2,0.2c-0.7,0-1.3,0.2-1.8,0.3
			c-0.5,0.2-1,0.3-1.5,0.5c-0.5,0.3-0.8,0.5-1.3,0.8c-0.5,0.3-0.8,0.7-1,1.2c-0.3,0.3-0.7,0.8-0.8,1.2c-0.2,0.5-0.5,1-0.5,1.5
			c0,0.5-0.2,1-0.2,1.7L220.6,179.6L220.6,179.6L220.6,179.6z M268.7,193.7c-1,1.2-2,2-2.8,2.5c-1.5,0.8-3.7,1.3-6.3,1.3
			c-3.2,0-5.7-1-7.7-3.2c-2-2.2-3-4.8-3-8s0.8-6,2.8-8.2c1.8-2.2,4.7-3.2,8-3.2c2.5,0,4.3,0.5,5.8,1.3c0.8,0.8,1.8,1.7,2.8,2.5
			l-2.7,2.2c-1-1-1.8-1.7-2-1.8c-0.8-0.5-2.2-0.8-3.7-0.8c-2.5,0-4.5,0.8-5.8,2.5c-1.2,1.5-1.8,3.2-1.8,5.5c0,2.3,0.7,4.2,2.2,5.7
			c1.3,1.5,3.2,2.2,5.2,2.2c2.8,0,5-0.8,6.3-2.8L268.7,193.7L268.7,193.7z M291.4,186.7h-18c0,1.8,0.7,3.7,1.8,5
			c1.3,1.7,3.2,2.3,5.3,2.3c2.7,0,5.2-1.3,7.5-3.8l2.8,2c-2.5,3.5-6,5.2-10.3,5.2c-3.3,0-6-1.2-8-3.3c-2-2.3-3-5-3-8.5
			c0-3,1.2-5.7,3.3-7.7c2.2-2,4.7-3,7.5-3c3.3,0,6,1,8,3.2C290.2,180.4,291.4,183.2,291.4,186.7L291.4,186.7L291.4,186.7z
			 M287.4,183.6c0-1-0.5-2-1.8-3.2c-1.5-1.3-3.2-2-5.3-2c-2,0-3.7,0.5-5,1.5s-2,2.3-2,3.7H287.4L287.4,183.6z M306.2,175.6l-0.7,3.2
			c-0.2,0-0.3,0-0.8-0.2c-0.5,0-0.7,0-0.8,0c-3.8,0-5.7,2.7-5.7,8v10.7h-3.5v-21.7h3.5v2.2c0.3-0.7,1-1.3,2-1.8
			c1.2-0.5,2.5-0.8,4-0.8C305,175.1,305.7,175.2,306.2,175.6L306.2,175.6L306.2,175.6z M325,196.7l-3.8,0.8l-0.7-1.7
			c-1.3,0.8-2,1.2-2.2,1.2c-0.7,0.3-1.8,0.5-3,0.5c-2.8,0-5-0.8-6.7-2.7c-1.3-1.3-2-3.2-2-5.2c0-2.2,0.8-4,2.7-5.5
			c1.7-1.3,3.7-2,6-2c2,0,3.8,0.5,5.2,1.5c0-3.7-1.3-5.5-4.3-5.5c-1.3,0-2.7,0.2-3.5,0.5c-0.5,0.2-1.3,0.7-2.7,1.3l-1.3-3
			c1.3-0.8,2.3-1.3,2.8-1.7c1.2-0.3,2.7-0.5,4.7-0.5c5.2,0,7.8,2.3,7.8,7.2v10.2C324,194.1,324.4,195.6,325,196.7L325,196.7
			L325,196.7z M320.7,189.7c0-1.3-0.5-2.3-1.8-3.2c-1-0.7-2.2-1-3.5-1s-2.3,0.3-3.3,1c-1,0.8-1.5,1.8-1.5,3.2s0.5,2.5,1.5,3.3
			c0.8,0.8,2,1.2,3.3,1.2C318.9,194.2,320.7,192.7,320.7,189.7L320.7,189.7L320.7,189.7z M357.8,197.1h-3.5v-14.2
			c0-1.2-0.5-2.3-1.3-3.2c-0.8-1-2-1.3-3.3-1.3c-2.5,0-4.2,0.5-5.3,1.7c0.3,0.7,0.5,1.8,0.5,3.7v13.3h-3.5v-14.2
			c0-3.2-1.7-4.7-5-4.7c-1.7,0-3.2,0.2-4.3,0.7v18h-3.5v-18.3c0-0.3-0.2-1-0.7-1.8c2-1,4.8-1.5,8.5-1.5c2.7,0,4.7,0.7,6.3,2
			c1.8-1.3,4.2-2,7-2c2.8,0,4.7,0.8,6.2,2.3c1.3,1.3,1.8,3.2,1.8,5.5L357.8,197.1L357.8,197.1z M366.8,169.7c0,0.8-0.3,1.5-0.8,2
			s-1.3,0.8-2,0.8c-0.8,0-1.5-0.3-2-0.8c-0.5-0.5-0.8-1.2-0.8-2c0-0.7,0.3-1.3,0.8-1.8s1.2-0.8,2-0.8c0.8,0,1.5,0.2,2,0.8
			C366.7,168.2,366.8,169.1,366.8,169.7L366.8,169.7z M365.8,197.1h-3.5v-21.5h3.5V197.1z M389,193.7c-1,1.2-2,2-2.8,2.5
			c-1.5,0.8-3.7,1.3-6.3,1.3c-3,0-5.5-1-7.7-3.2c-2-2.2-3-4.8-3-8s1-6,2.8-8.2c2-2.2,4.7-3.2,8-3.2c2.5,0,4.5,0.5,5.8,1.3
			c0.8,0.8,1.8,1.7,2.8,2.5l-2.7,2.2c-1-1-1.8-1.7-2.2-1.8c-0.8-0.5-2.2-0.8-3.7-0.8c-2.5,0-4.5,0.8-5.8,2.5
			c-1.2,1.5-1.8,3.2-1.8,5.5c0,2.3,0.7,4.2,2,5.7c1.3,1.5,3.2,2.2,5.3,2.2c2.8,0,5-0.8,6.3-2.8L389,193.7L389,193.7z"/>
	</g>
	<g>
		<path class="st0" d="M166.9,106.6c0.3-2.2,1-4,2.2-5.8c1.5-2,3.5-3.7,6-4.8c2.5-1.2,5.2-1.8,8.2-1.8h11.7v4.2h-12.8
			c-2,0-3.8,0.5-5.5,1.5c-1.8,1-3.2,2.2-4.2,3.8c-0.7,1-1,2-1.3,3L166.9,106.6L166.9,106.6z"/>
		<path class="st0" d="M166.4,78.9c1.2,0.5,2.5,0.7,3.8,0.7h12.2c4.3,0,8,0.8,11.2,2.5c3.2,1.7,5.5,4,7.2,7c1.7,3,2.5,6.3,2.7,10
			c0,3.8-0.8,7.3-2.7,10.7c-1.8,3.2-4.3,5.7-7.5,7.7c-2.7,1.5-6.3,2.7-10,2.8v-3.5c2.7-0.2,5.2-0.8,7.3-2.2c2.7-1.7,4.8-3.8,6.3-6.5
			c1.7-2.8,2.3-5.8,2.3-9.2c-0.2-2.8-1-5.5-2.5-7.8c-1.5-2.3-3.5-4.2-6-5.5s-5.3-2-8.3-2h-12.8c-1.2,0-2.3-0.2-3.3-0.3L166.4,78.9
			L166.4,78.9z"/>
		<path class="st0" d="M189.3,59.8h-24.8v3.7h24.3c2.5,0,4.5,0.8,6,2.3c1.5,1.7,2.2,3.5,2.2,5.8l0,0h3.8c0-2-0.5-4-1.5-5.8
			s-2.3-3.3-4.2-4.3C193.4,60.4,191.4,59.8,189.3,59.8L189.3,59.8L189.3,59.8z"/>
		<path class="st0" d="M200.6,84.8c0.8-2,2.2-3.7,4.2-5c1.8-1.3,3.8-2.2,6.2-2.5l5.5-0.8l0.7,3.7l-5.2,0.8c-2.2,0.3-3.8,1.2-5.2,2.3
			c-1.3,1.2-2.2,2.7-2.7,4.3c0,0.3-0.2,0.7-0.2,1c-0.3,2.3-0.5,1.3-0.7,0.5C202.7,87.4,201.7,86.1,200.6,84.8L200.6,84.8L200.6,84.8
			z"/>
		<rect x="158.8" y="59.8" class="st1" width="3.3" height="60.3"/>
		<polygon class="st0" points="215.4,116.9 219.2,116.9 207.7,92.6 203.9,92.6 		"/>
		<path class="st1" d="M188.9,45.8c12.2,0,23.3,5,31.3,13s13,19,13,31.3s-5,23.3-13,31.2c-8,8-19,13-31.3,13
			c-11.3,0-21.8-4.3-29.7-11.3h4.2c7,5.5,15.8,8.7,25.5,8.7c11.5,0,21.8-4.7,29.3-12.2c7.5-7.5,12.2-17.8,12.2-29.3
			s-4.7-21.8-12.2-29.3c-7.5-7.8-18-12.3-29.3-12.3c-9.7,0-18.3,3.3-25.5,8.7h-4.2C167.1,50.1,177.6,45.8,188.9,45.8L188.9,45.8
			L188.9,45.8z"/>
	</g>
</g>
</svg>
